<svg width="110" height="13" viewBox="0 0 110 13" fill="none" xmlns="http://www.w3.org/2000/svg">
<path d="M8.36206 12H11.5621L7.59406 0.655999H4.04206L0.0580625 12H3.09806L3.78606 9.856H7.67406L8.36206 12ZM5.75406 3.76L6.90606 7.408H4.57006L5.75406 3.76ZM14.9634 7.984C14.9634 6.88 15.6674 6.32 16.4514 6.32C17.2194 6.32 17.9394 6.864 17.9394 7.984C17.9394 9.088 17.2194 9.664 16.4514 9.664C15.6674 9.664 14.9634 9.088 14.9634 7.984ZM18.0194 11.12C18.0194 11.424 18.0674 11.856 18.0834 12H20.7554C20.7394 11.808 20.6914 11.2 20.6914 10.512V0.415999H17.8914V4.704C17.7154 4.304 17.0914 3.84 15.9234 3.84C13.7954 3.84 12.0994 5.52 12.0994 8C12.0994 10.496 13.8434 12.16 15.9714 12.16C16.9474 12.16 17.7474 11.712 18.0194 11.12ZM25.0073 7.072C25.0553 6.448 25.5513 5.888 26.3033 5.888C27.2313 5.888 27.5993 6.464 27.6153 7.072H25.0073ZM27.8553 9.136C27.6633 9.616 27.2473 9.984 26.4633 9.984C25.6633 9.984 25.0073 9.44 24.9753 8.64H30.2233C30.2233 8.608 30.2713 8.304 30.2713 7.872C30.2713 5.296 28.7353 3.76 26.3193 3.76C24.1753 3.76 22.2713 5.344 22.2713 8C22.2713 10.672 24.2393 12.24 26.4633 12.24C28.3353 12.24 29.6153 11.2 30.0473 9.888C29.7273 9.728 28.1913 9.28 27.8553 9.136ZM31.3956 9.792C31.4436 10.608 32.2116 12.24 34.7556 12.24C36.9156 12.24 38.0516 10.88 38.0516 9.52C38.0516 8.256 37.2836 7.312 35.4276 6.944L34.6116 6.784C34.2756 6.72 34.0836 6.528 34.0836 6.256C34.0836 5.904 34.4516 5.728 34.7556 5.728C35.3316 5.728 35.6036 6.08 35.6356 6.48L37.9556 6.16C37.8276 5.072 36.9156 3.776 34.7236 3.776C33.0436 3.776 31.5556 4.896 31.5556 6.48C31.5556 7.696 32.2916 8.624 34.0996 9.024L34.8196 9.184C35.2676 9.28 35.4436 9.504 35.4436 9.76C35.4436 10.08 35.1716 10.304 34.7396 10.304C34.0996 10.304 33.7636 9.904 33.7316 9.44C32.9316 9.568 32.1796 9.664 31.3956 9.792ZM43.1601 1.728H40.6481V2.784C40.6481 3.52 40.2481 4.016 39.4321 4.016H39.0161V6.352H40.3761V9.232C40.3761 11.136 41.4001 12.144 43.1921 12.144C44.0881 12.144 44.5521 11.936 44.6161 11.904V9.664C44.4721 9.712 44.2321 9.744 44.0241 9.744C43.5281 9.744 43.1601 9.568 43.1601 8.928V6.352H44.6481V4.016H43.1601V1.728ZM51.5763 4.016C51.4163 3.968 51.2243 3.936 50.9523 3.936C50.2163 3.936 49.3843 4.32 49.0643 5.184V4.016H46.3283V12H49.1443V8.64C49.1443 7.056 50.0403 6.608 50.8563 6.608C51.0803 6.608 51.3363 6.624 51.5763 6.688V4.016ZM57.3224 12H59.8664C59.8344 11.856 59.7704 11.264 59.7704 10.64V6.88C59.7704 5.168 58.7464 3.76 56.1704 3.76C53.8344 3.76 52.7624 5.232 52.6664 6.496L55.1144 6.848C55.1464 6.288 55.5144 5.856 56.1704 5.856C56.7304 5.856 57.0504 6.192 57.0504 6.64C57.0504 6.96 56.8584 7.104 56.4264 7.168L54.9544 7.392C53.5464 7.6 52.4744 8.288 52.4744 9.824C52.4744 11.104 53.4984 12.192 55.2104 12.192C56.1224 12.192 56.8744 11.824 57.2584 11.152C57.2584 11.488 57.2744 11.808 57.3224 12ZM56.0104 10.256C55.5144 10.256 55.2584 9.904 55.2584 9.552C55.2584 9.104 55.5624 8.864 55.9944 8.784L57.0504 8.608V9.04C57.0504 9.936 56.6024 10.256 56.0104 10.256ZM64.5193 12V7.456C64.5193 6.864 64.8873 6.336 65.5433 6.336C66.2313 6.336 66.5673 6.832 66.5673 7.44V12H69.3513V7.408C69.3513 6.864 69.7193 6.336 70.3913 6.336C71.0633 6.336 71.3993 6.832 71.3993 7.44V12H74.1513V6.848C74.1513 4.672 72.7753 3.776 71.2713 3.776C70.1993 3.776 69.4153 4.176 68.8713 4.992C68.4393 4.208 67.6233 3.776 66.5513 3.776C65.6393 3.776 64.7113 4.288 64.3433 5.024V4.016H61.7033V12H64.5193ZM78.3979 7.072C78.4459 6.448 78.9419 5.888 79.6939 5.888C80.6219 5.888 80.9899 6.464 81.0059 7.072H78.3979ZM81.2459 9.136C81.0539 9.616 80.6379 9.984 79.8539 9.984C79.0539 9.984 78.3979 9.44 78.3659 8.64H83.6139C83.6139 8.608 83.6619 8.304 83.6619 7.872C83.6619 5.296 82.1259 3.76 79.7099 3.76C77.5659 3.76 75.6619 5.344 75.6619 8C75.6619 10.672 77.6299 12.24 79.8539 12.24C81.7259 12.24 83.0059 11.2 83.4379 9.888C83.1179 9.728 81.5819 9.28 81.2459 9.136ZM88.0662 7.488C88.0662 6.832 88.4662 6.336 89.1062 6.336C89.7942 6.336 90.1302 6.832 90.1302 7.472V12H92.9462V6.96C92.9462 4.992 91.9222 3.824 90.0982 3.824C89.1862 3.824 88.2742 4.256 87.9062 4.96V4.016H85.2502V12H88.0662V7.488ZM98.3632 1.728H95.8512V2.784C95.8512 3.52 95.4512 4.016 94.6352 4.016H94.2192V6.352H95.5792V9.232C95.5792 11.136 96.6032 12.144 98.3952 12.144C99.2912 12.144 99.7552 11.936 99.8192 11.904V9.664C99.6752 9.712 99.4352 9.744 99.2272 9.744C98.7312 9.744 98.3632 9.568 98.3632 8.928V6.352H99.8512V4.016H98.3632V1.728ZM103.789 7.984C103.789 6.832 104.525 6.304 105.261 6.304C106.029 6.304 106.765 6.832 106.765 7.984C106.765 9.136 106.029 9.664 105.261 9.664C104.525 9.664 103.789 9.136 103.789 7.984ZM101.021 8C101.021 10.512 102.909 12.24 105.277 12.24C107.645 12.24 109.533 10.512 109.533 8C109.533 5.488 107.645 3.76 105.277 3.76C102.909 3.76 101.021 5.488 101.021 8Z" fill="#58AC76"/>
</svg>
