<svg width="100" height="40" viewBox="0 0 100 40" fill="none" xmlns="http://www.w3.org/2000/svg">
<path d="M60.6262 15.3788C60.498 15.4684 60.3955 15.6477 60.1776 15.6093C60.2033 15.0459 59.9084 14.8667 59.3829 14.8923C58.9599 14.9179 58.5241 14.8923 58.1012 14.8923C57.2937 14.8923 57.2168 14.9691 57.2168 15.7629C57.2168 19.0917 57.2168 22.4206 57.2168 25.7494C57.2168 26.8632 57.2168 27.9643 57.2168 29.0782C57.2168 29.9232 57.2937 30 58.114 30C58.5241 30 58.9214 30 59.3317 30C60.4468 30 60.4468 30 60.4468 28.8478C60.4468 27.5674 60.4468 26.2999 60.4468 24.9428C63.2025 26.5688 65.7916 25.2501 66.7401 23.368C67.7911 21.2811 67.8937 19.1301 66.9195 17.0176C65.8044 14.585 62.818 13.8552 60.6262 15.3788ZM63.6254 22.2797C62.7796 23.4704 61.3953 23.1375 60.5749 22.4974C60.4212 22.3693 60.434 22.2029 60.434 22.0365C60.434 20.8201 60.434 19.6039 60.434 18.3876C60.434 18.2211 60.3955 18.0419 60.5493 17.9138C61.5619 17.0432 63.2025 16.8384 63.8819 18.3491C64.1382 18.9253 64.1638 19.5398 64.2023 20.0904C64.1766 20.9097 64.0869 21.6396 63.6254 22.2797Z" fill="#303F8C"/>
<path d="M75.7878 15.0845C73.109 13.625 69.4047 15.0333 68.3281 17.8756C67.9691 18.8103 67.9051 19.7833 67.982 20.7692C68.1358 22.9969 69.4431 24.6997 71.4939 25.3271C73.0449 25.8136 74.6214 25.6855 76.1723 25.3143C78.0309 24.8662 78.0693 24.7638 77.5309 22.9585C77.3899 22.4719 77.1721 22.344 76.6979 22.5488C75.9416 22.8688 75.1469 23.0225 74.3395 23.0609C73.0449 23.125 71.9298 22.4591 71.5196 21.4605C71.3786 21.0893 71.4299 20.9484 71.8401 20.9612C72.7757 20.974 73.7242 20.9612 74.6599 20.9612V20.9484C75.5956 20.9484 76.5441 20.9356 77.4797 20.9484C77.9668 20.9484 78.1847 20.7179 78.1718 20.2442C78.1462 19.7065 78.1462 19.1816 78.0821 18.6438C77.8771 17.1074 77.1977 15.8527 75.7878 15.0845ZM74.5958 18.8999C74.1087 18.8743 73.6088 18.8999 73.1218 18.8999C73.1218 18.8999 73.1218 18.8999 73.1218 18.9127C72.6731 18.9127 72.2246 18.9127 71.7759 18.9127C71.5708 18.9127 71.4042 18.9255 71.4555 18.6054C71.6093 17.7988 72.4168 17.0818 73.2756 17.069C74.1343 17.0562 74.7368 17.5684 74.929 18.4518C75.0059 18.7591 74.9675 18.9127 74.5958 18.8999Z" fill="#303F8C"/>
<path d="M84.698 22.958C84.6339 22.958 84.5698 22.9708 84.5058 22.9836C83.3009 23.1757 82.8652 22.8299 82.8395 21.6264C82.8139 20.5637 82.8267 19.4883 82.8267 18.4256C82.8267 17.0557 82.8267 17.0557 84.1725 17.0557C85.749 17.0557 85.7362 17.0557 85.685 15.4553C85.6721 15.0072 85.4927 14.8408 85.0698 14.8408C84.4929 14.8536 83.9162 14.8151 83.3394 14.8536C82.9549 14.8792 82.8139 14.7639 82.8267 14.367C82.8652 13.7141 82.8267 13.0483 82.8395 12.3825C82.8395 11.9472 82.6473 11.7424 82.2114 11.7936C81.5065 11.8704 80.8144 11.9856 80.1223 12.0753C79.7633 12.1265 79.6095 12.3185 79.6095 12.677C79.6223 13.2532 79.5967 13.8293 79.6223 14.4054C79.6352 14.7767 79.507 14.892 79.1481 14.8792C78.8404 14.8664 78.4431 14.7255 78.2637 15.0712C77.9689 15.5961 78.0715 16.1979 78.1868 16.7612C78.2893 17.2477 78.7892 17.0813 79.1097 17.0685C79.5326 17.0557 79.6095 17.2221 79.5967 17.5934C79.5711 18.4512 79.5839 19.2963 79.5839 20.1541H79.5967C79.5967 20.6022 79.5967 21.0502 79.5967 21.4984C79.6095 21.9465 79.6095 22.3947 79.6352 22.8427C79.7377 24.251 80.4042 25.1345 81.6603 25.4674C83.0702 25.8387 84.4545 25.6466 85.7875 25.0961C85.9414 25.032 86.1336 24.9552 86.1465 24.7632C86.1593 24.1231 86.108 23.4445 85.7875 22.9067C85.544 22.4458 85.0826 22.9452 84.698 22.958Z" fill="#303F8C"/>
<path d="M94.7471 23.1243C93.9523 23.1371 93.1705 23.1371 92.3758 23.1371C91.8759 23.1371 91.3889 23.1371 90.7736 23.1371C90.9915 22.8171 91.1068 22.6251 91.2479 22.433C92.4399 20.743 93.6319 19.0529 94.8496 17.3885C95.2341 16.8636 95.4263 16.3259 95.3879 15.6729C95.3494 14.9303 95.2853 14.8279 94.5291 14.8279C92.5425 14.8279 90.5557 14.8407 88.5818 14.8407C87.1719 14.8407 87.1719 14.8407 87.1847 16.2362C87.1975 17.0044 87.2488 17.0556 88.0435 17.0556C89.0946 17.0556 90.1584 17.0556 91.3248 17.0556C90.4019 18.3872 89.5431 19.6291 88.6972 20.871C88.1461 21.6775 87.5692 22.4714 87.0309 23.2908C86.6593 23.8541 86.6849 24.5071 86.9156 25.0704C87.1078 25.5314 87.6718 25.3393 88.082 25.3393C90.0174 25.352 91.9656 25.3393 93.9011 25.3265C95.6827 25.3137 95.3751 25.4929 95.4263 23.7773C95.452 23.2524 95.2213 23.1116 94.7471 23.1243Z" fill="#303F8C"/>
<path d="M25.6855 10.7953C25.6855 9.9887 25.6342 9.95029 24.8652 10.0271C24.3525 10.0783 23.8526 10.1679 23.3399 10.2063C22.6863 10.2576 22.4299 10.552 22.4556 11.2434C22.5068 12.6005 22.4684 13.9577 22.4684 15.4044C20.11 13.8809 17.3285 14.7643 16.2006 16.9024C15.1111 18.9893 14.9829 21.1531 15.9699 23.2912C17.085 25.6982 19.9945 26.4407 22.1991 24.9812C22.353 24.8787 22.5196 24.7763 22.7247 24.6483C22.6991 25.3269 23.0579 25.4549 23.5835 25.4165C23.9808 25.3909 24.3909 25.4165 24.8011 25.4037C25.6342 25.4037 25.6983 25.3397 25.6983 24.469C25.6983 21.1275 25.6983 17.773 25.6983 14.4314C25.6855 13.2279 25.6855 12.0116 25.6855 10.7953ZM21.6865 22.8431C20.9174 23.1503 20.1997 23.2271 19.5331 22.6638C18.3155 21.6268 18.4565 18.49 19.751 17.5554C20.4176 17.0816 21.8403 17.2225 22.353 17.8242C22.4812 17.9779 22.4684 18.1443 22.4684 18.3108C22.4684 18.9125 22.4684 19.5014 22.4684 20.1032C22.4684 20.5257 22.4299 20.961 22.4812 21.3835C22.5581 22.0621 22.3915 22.5614 21.6865 22.8431Z" fill="#E0A66E"/>
<path d="M14.9576 23.2532C14.3679 23.2788 14.3936 22.8819 14.3936 22.485C14.3936 20.2701 14.3936 18.0551 14.3936 15.8402C14.3936 15.0464 14.2782 14.9311 13.4579 14.9311C13.0734 14.9311 12.6889 14.9439 12.3044 14.9311C11.8045 14.9183 11.4071 15.0336 11.3943 15.7249C8.88211 13.574 5.61367 15.0208 4.60109 17.4662C3.89613 19.1434 3.80641 20.859 4.35756 22.5874C5.25478 25.4426 7.9977 26.5564 10.6253 25.1481C11.2277 24.828 11.5866 24.4951 12.3172 25.1353C12.9837 25.7114 14.0604 25.5322 14.9704 25.4169C15.2139 25.3785 15.3293 25.1736 15.3421 24.9561C15.3677 24.5335 15.3677 24.111 15.3421 23.6885C15.3549 23.4452 15.2139 23.2404 14.9576 23.2532ZM9.88186 23.0227C9.10001 23.3045 8.22842 22.9972 7.88235 22.3186C7.1902 20.9743 7.10049 19.5531 7.89516 18.2344C8.70266 16.8772 10.1895 17.2613 11.0483 17.9911C11.2149 18.1319 11.1892 18.3368 11.1892 18.5288C11.1892 19.0794 11.1892 19.6299 11.1892 20.1933C11.1892 20.6157 11.1508 21.0511 11.2021 21.4735C11.3174 22.3954 10.8432 22.6899 9.88186 23.0227Z" fill="#E0A66E"/>
<path d="M49.1527 21.0249C50.0242 21.0249 50.8959 21.0249 51.7803 21.0249C52.7032 21.0249 53.6131 21.0249 54.536 21.0249C55.0359 21.0249 55.3307 20.8328 55.3051 20.2567C55.2794 19.4501 55.3051 18.6435 55.0616 17.8497C54.5616 16.1853 53.4978 15.0458 51.7803 14.7001C49.7038 14.2904 47.8196 14.7641 46.3713 16.3901C45.128 17.7985 44.8973 19.5397 45.1921 21.3193C45.5125 23.3039 46.602 24.725 48.5759 25.3524C50.3448 25.9157 52.1135 25.7108 53.8695 25.2243C55.1385 24.8658 55.1769 24.7506 54.8051 23.4575C54.7539 23.2782 54.6898 23.0862 54.6513 22.907C54.5488 22.51 54.3437 22.382 53.9464 22.5485C53.3312 22.8045 52.6903 22.9453 52.0366 23.0477C50.6395 23.2782 49.2809 22.7149 48.7681 21.6906C48.499 21.1401 48.5631 21.0249 49.1527 21.0249ZM48.64 18.5154C48.8322 17.7217 49.6269 17.0815 50.4601 17.0687C51.0753 17.0431 51.524 17.3376 51.8444 17.8241C52.0494 18.1314 52.2417 18.5026 52.0879 18.8227C51.9469 19.1172 51.5496 18.938 51.2547 18.9508C50.5114 18.9764 49.7679 18.9508 49.0245 18.9636C48.6784 18.9764 48.5631 18.8611 48.64 18.5154Z" fill="#E0A66E"/>
<path d="M28.9532 15.4175C27.1204 16.5826 26.5179 18.3238 26.5564 20.3979C26.6205 23.7395 28.5559 25.6728 31.8757 25.6728C33.2727 25.6728 34.2469 25.3911 35.2081 24.7509C37.7845 23.061 37.7845 19.0023 36.5797 16.8898C35.0671 14.2268 30.9784 14.1243 28.9532 15.4175ZM33.8239 21.6654C33.5163 22.6641 32.901 23.125 31.9013 23.1121C30.9656 23.1121 30.3375 22.6256 30.0812 21.6398C29.7992 20.5899 29.7864 19.5273 30.1453 18.4902C30.4657 17.5812 31.0938 17.1715 32.0423 17.1843C32.9395 17.1971 33.5163 17.6452 33.811 18.567C33.9776 19.0792 34.0546 19.6041 34.0033 20.1034C34.0546 20.6667 33.9776 21.1661 33.8239 21.6654Z" fill="#E0A66E"/>
<path d="M45.1168 23.304C45.0656 22.8687 44.8221 22.7279 44.3991 22.8558C44.0273 22.9711 43.6685 23.0863 43.284 23.0863C42.4893 23.112 42.1945 22.8943 42.0663 22.1133C41.8741 20.9738 42.0023 19.8215 41.9766 18.6692C41.951 17.0817 41.9766 17.0817 43.5275 17.0817C44.8861 17.0817 44.9118 17.056 44.8733 15.6989C44.8733 15.6349 44.8733 15.5709 44.8733 15.5069C44.8477 15.0972 44.6683 14.8795 44.2325 14.8923C43.6813 14.9051 43.1174 14.8667 42.5662 14.9051C42.1304 14.9307 41.951 14.8027 41.9766 14.3418C42.0151 13.7272 41.9766 13.0999 41.9895 12.4853C42.0023 11.986 41.7972 11.7555 41.2973 11.8196C40.618 11.9092 39.9515 11.986 39.2721 12.1012C38.9389 12.1524 38.7466 12.3573 38.7594 12.7158C38.7723 13.2535 38.7338 13.7784 38.7723 14.3162C38.7979 14.7515 38.6697 14.9051 38.2082 14.9051C37.3624 14.8795 37.2598 15.0331 37.2598 15.9294C37.2598 17.0304 37.2726 17.0817 38.1826 17.0688C38.6313 17.0688 38.7851 17.2097 38.7723 17.6578C38.7466 18.49 38.7594 19.3222 38.7594 20.1544C38.7723 20.1544 38.7723 20.1544 38.7851 20.1544C38.7851 21.0122 38.7594 21.8573 38.7979 22.7151C38.8748 24.4307 39.8361 25.4805 41.4382 25.6214C42.1945 25.6854 42.9636 25.6854 43.7326 25.5189C45.4117 25.1732 45.4886 25.0708 45.1681 23.4192C45.1297 23.3936 45.1168 23.3552 45.1168 23.304Z" fill="#E0A66E"/>
</svg>
