<svg width="124" height="14" viewBox="0 0 124 14" fill="none" xmlns="http://www.w3.org/2000/svg">
<path fill-rule="evenodd" clip-rule="evenodd" d="M92.8971 0.357666C89.1343 0.357666 86.0439 3.40808 86.0439 7.17096C86.0439 10.9338 89.1343 13.9842 92.8971 13.9842C96.66 13.9842 99.7503 10.9338 99.7503 7.17096C99.7503 3.40808 96.66 0.357666 92.8971 0.357666ZM92.8855 5.01075C91.9557 5.01075 91.2019 5.76453 91.2019 6.69437V7.65644C91.2019 8.58628 91.9557 9.34007 92.8855 9.34007C93.8154 9.34007 94.5692 8.58628 94.5692 7.65644V6.69437C94.5692 5.76453 93.8154 5.01075 92.8855 5.01075Z" fill="#175EA8"/>
<path fill-rule="evenodd" clip-rule="evenodd" d="M57.6696 0.141846C53.9089 0.141846 50.8164 3.19052 50.8164 6.95125C50.8164 10.712 53.9089 13.7607 57.6696 13.7607C61.4303 13.7607 64.5228 10.712 64.5228 6.95125C64.5228 3.19052 61.4303 0.141846 57.6696 0.141846ZM57.6446 5.14462C56.9507 5.14462 56.3882 5.70715 56.3882 6.40106V7.47799C56.3882 8.1719 56.9507 8.73442 57.6446 8.73442C58.3385 8.73442 58.901 8.1719 58.901 7.47799V6.40105C58.901 5.70715 58.3385 5.14462 57.6446 5.14462Z" fill="#175EA8"/>
<path fill-rule="evenodd" clip-rule="evenodd" d="M104.12 0.411074C101.614 0.802627 100.186 2.61356 100.507 4.99339C100.793 7.12419 101.821 8.01065 105.218 9.05604C105.958 9.28406 106.179 9.58348 105.878 9.9546C105.558 10.3499 104.831 10.2324 103.066 9.50057C101.591 8.88877 100.607 9.18905 100.266 10.3542C99.8635 11.7284 100.576 12.7522 102.472 13.5255C104.141 14.2058 107.196 14.112 108.821 13.3306C111.136 12.2175 111.618 8.58301 109.686 6.81239C109.01 6.19339 108.347 5.88993 106.276 5.25337C105.254 4.93869 105 4.64906 105.411 4.26326C105.669 4.02084 106.087 4.06345 107.019 4.42823C109.184 5.27468 110.331 4.77487 110.344 2.97949C110.354 1.71673 109.437 0.959823 107.345 0.504067C106.768 0.377964 104.71 0.318944 104.12 0.411074Z" fill="#175EA8"/>
<path fill-rule="evenodd" clip-rule="evenodd" d="M76.1393 0.357666C74.809 0.357666 73.7305 1.43615 73.7305 2.76653C73.7305 4.09691 74.809 5.17539 76.1393 5.17539H77.5693L77.5693 11.4937C77.5693 12.8626 78.6791 13.9723 80.048 13.9723C81.4169 13.9723 82.5267 12.8626 82.5267 11.4937V5.17539H83.9594C85.2898 5.17539 86.3683 4.09691 86.3683 2.76653C86.3683 1.43615 85.2898 0.357666 83.9594 0.357666H76.1393Z" fill="#175EA8"/>
<path fill-rule="evenodd" clip-rule="evenodd" d="M26.8064 0.0678308C26.3631 0.164567 26.1877 0.227171 25.8367 0.413524C25.4169 0.636747 24.9361 1.31645 24.8216 1.84886C24.6699 2.55485 24.677 2.3163 24.6768 6.85558C24.6766 10.3623 24.6838 11.1196 24.7196 11.3578C24.9285 12.7426 25.5315 13.4318 26.7688 13.6999C27.08 13.7674 28.1071 13.7833 28.3886 13.7251C29.0003 13.5984 29.1164 13.563 29.4873 13.3891C30.1434 13.0812 30.5832 12.4717 30.5832 11.8703C30.5832 11.542 30.5246 11.3998 29.8816 10.1687C29.2833 9.02337 29.3177 9.14493 29.5556 9.0168C29.799 8.88593 29.7549 8.83008 30.3545 10.0249C31.3611 12.0309 31.5806 12.3931 32.1451 12.9782C32.719 13.5734 33.2051 13.7583 34.1961 13.7583C35.9855 13.7583 36.8871 12.9826 37.0775 11.2791C37.1491 10.6398 37.1276 2.65268 37.0532 2.25954C36.8449 1.1562 36.3652 0.527234 35.4805 0.197238C34.5903 -0.134584 33.0628 -0.0267147 32.2106 0.428308C31.4491 0.834964 31.0575 1.59297 31.2604 2.26775C31.3059 2.41924 31.3434 2.5021 31.7361 3.32418C32.3431 4.59452 32.3113 4.45562 32.0211 4.56385C31.9086 4.60583 31.8111 4.63467 31.8046 4.6281C31.7981 4.62153 31.6413 4.30157 31.456 3.917C30.0671 1.033 29.8353 0.681282 29.0764 0.304377C28.5132 0.0245735 27.4916 -0.0818359 26.8064 0.0678308Z" fill="#175EA8"/>
<path fill-rule="evenodd" clip-rule="evenodd" d="M5.24711 0.0131836L5.26646 0.0132645H7.69697C9.70596 0.0132645 11.3346 1.64187 11.3346 3.65086C11.3346 4.7765 10.721 5.75884 9.81012 6.28171C11.0539 6.93282 11.9025 8.23577 11.9025 9.73694C11.9025 11.8895 10.1576 13.6345 8.00501 13.6345H5.28681C5.27361 13.6347 5.26037 13.6348 5.24711 13.6348H3.13536C1.88249 13.6348 0.866835 12.6192 0.866835 11.3663L0.866835 9.80741C0.86642 9.78397 0.866211 9.76048 0.866211 9.73694C0.866211 9.7134 0.86642 9.68991 0.866835 9.66647L0.866835 3.41055C0.866449 3.38965 0.866256 3.36871 0.866256 3.34773C0.866256 3.32674 0.866449 3.3058 0.866835 3.28491L0.866835 2.2817C0.866836 1.02883 1.88249 0.0131836 3.13535 0.0131836H5.24711ZM4.47349 4.18384C4.47349 3.86573 4.73137 3.60785 5.04949 3.60785H6.23728C6.76862 3.60785 7.19935 4.03858 7.19935 4.56992C7.19935 5.10125 6.76862 5.53199 6.23728 5.53199H5.04948C4.73137 5.53199 4.47349 5.2741 4.47349 4.95599V4.18384ZM5.06698 7.537C4.69515 7.537 4.39373 7.83842 4.39373 8.21024V8.94824C4.39373 9.32006 4.69515 9.62148 5.06698 9.62148H6.63856C7.21418 9.62148 7.6808 9.15485 7.6808 8.57924C7.6808 8.00362 7.21418 7.537 6.63856 7.537H5.06698Z" fill="#175EA8"/>
<path fill-rule="evenodd" clip-rule="evenodd" d="M24.1037 10.9165L22.1709 3.70312C22.0865 3.35399 22.0004 3.03564 21.9144 2.74592L21.9069 2.71809C21.8917 2.66139 21.8745 2.60579 21.8553 2.55135C21.8386 2.49768 21.822 2.44508 21.8054 2.39351C21.3126 0.86382 19.8237 0.120361 18.2166 0.120361C16.5306 0.120361 15.0844 0.980295 14.6439 2.6077C14.548 2.96166 14.4462 3.36389 14.3391 3.82057L12.4312 10.9409C12.1118 12.1329 12.8192 13.3581 14.0111 13.6775C15.2031 13.9969 16.4283 13.2895 16.7477 12.0975L16.7762 11.9914H19.7652L19.7871 12.0731C20.1065 13.2651 21.3317 13.9724 22.5237 13.653C23.7157 13.3336 24.4231 12.1084 24.1037 10.9165ZM19.4189 6.85712V7.88261C19.4189 8.52088 18.9015 9.03831 18.2632 9.03831C17.6267 9.03831 17.1101 8.52374 17.1075 7.88731L17.1033 6.86184C17.1007 6.22057 17.6198 5.69933 18.2611 5.69933C18.9005 5.69933 19.4189 6.21769 19.4189 6.85712Z" fill="#175EA8"/>
<path fill-rule="evenodd" clip-rule="evenodd" d="M123.057 11.1628L121.128 3.96491C121.041 3.60368 120.952 3.27528 120.863 2.9773L120.86 2.96442C120.846 2.91165 120.83 2.85984 120.812 2.80902C120.794 2.75126 120.777 2.69471 120.759 2.63936C120.266 1.10967 118.777 0.366211 117.17 0.366211C115.484 0.366211 114.038 1.22614 113.597 2.85355C113.502 3.20501 113.401 3.60408 113.295 4.05679L111.384 11.1867C111.065 12.3786 111.772 13.6038 112.964 13.9232C114.156 14.2426 115.381 13.5353 115.701 12.3433L115.729 12.2371H118.718L118.74 12.3194C119.06 13.5114 120.285 14.2188 121.477 13.8994C122.669 13.58 123.376 12.3548 123.057 11.1628ZM118.374 7.10364V8.12912C118.374 8.7674 117.857 9.28483 117.219 9.28483C116.582 9.28483 116.066 8.77026 116.063 8.13383L116.059 7.10836C116.056 6.46709 116.575 5.94585 117.217 5.94585C117.856 5.94585 118.374 6.46421 118.374 7.10364Z" fill="#175EA8"/>
<path fill-rule="evenodd" clip-rule="evenodd" d="M40.376 0.0433532C40.3059 0.0583223 40.1465 0.0922767 40.0219 0.118564C38.858 0.364642 38.2447 1.12515 38.1226 2.47383C38.0721 3.03097 38.0621 10.5962 38.1111 11.228C38.2464 12.9774 39.155 13.7627 41.0417 13.7609C42.73 13.7593 43.5987 13.1435 43.8957 11.7382C43.9475 11.4936 43.9555 11.3217 43.971 10.1305L43.9885 8.79682L44.068 8.72343C44.1731 8.6265 44.3139 8.62631 44.4189 8.72343L44.4985 8.79682L44.5163 10.1154C44.5337 11.4091 44.5515 11.6714 44.6408 11.9464C44.6634 12.0159 44.6821 12.0897 44.6822 12.1101C44.6827 12.1608 44.8194 12.4715 44.9068 12.6205C45.3682 13.4077 46.1517 13.7596 47.4453 13.7609C49.3436 13.7627 50.2574 12.9619 50.3776 11.1906C50.4129 10.6681 50.4129 3.08884 50.3774 2.59942C50.2853 1.32577 49.8553 0.638832 48.9107 0.255294C48.382 0.0407975 47.3439 -0.0639863 46.7911 0.0413452C45.9508 0.201442 45.5911 0.372126 45.1899 0.801301C44.652 1.37633 44.5165 1.9311 44.51 3.58428C44.5066 4.48717 44.5037 4.5067 44.3683 4.58538C44.2562 4.65055 44.1627 4.63869 44.0558 4.54577L43.9885 4.48735L43.9703 3.3968C43.9501 2.18832 43.9249 1.97711 43.7455 1.51471C43.4186 0.671326 42.8474 0.26077 41.6958 0.0413452C41.4952 0.00300966 40.5563 0.00447 40.376 0.0433532Z" fill="#175EA8"/>
<path d="M69.3316 3.18492L69.3316 3.18492C69.2819 3.18737 69.2226 3.19331 69.1681 3.2012C69.1413 3.20509 69.1181 3.2091 69.0999 3.21276C69.0826 3.21625 69.0749 3.2184 69.0749 3.21837L69.0748 3.21838C69.0293 3.2324 68.971 3.24485 68.9298 3.25151C68.9305 3.25137 68.9303 3.25143 68.9291 3.25163C68.9293 3.2516 68.9294 3.25158 68.9296 3.25156C68.9297 3.25154 68.9297 3.25153 68.9298 3.25151C68.9297 3.25153 68.9296 3.25155 68.9295 3.25158C68.8944 3.26337 68.8428 3.27901 68.8065 3.28966C68.7757 3.29869 68.7145 3.31976 68.6817 3.33276C68.6555 3.34313 68.6297 3.35303 68.6086 3.36083C68.5984 3.36456 68.5865 3.36887 68.5749 3.37277C68.5697 3.37453 68.56 3.37774 68.5485 3.38104C68.5432 3.38259 68.5323 3.38568 68.5186 3.38881L68.5185 3.38882C68.5172 3.38915 68.4959 3.39445 68.4642 3.39808M69.3316 3.18492L68.4642 3.39808M69.3316 3.18492C69.6495 3.16925 69.9277 3.20032 70.1416 3.26328L69.3316 3.18492ZM68.4642 3.39808C68.4474 3.40001 68.4276 3.40147 68.4064 3.40147C68.4297 3.40147 68.4495 3.39982 68.4642 3.39808ZM67.3028 4.52983L67.3028 4.5299C67.2725 4.58692 67.2271 4.6825 67.1883 4.77036C67.1692 4.81344 67.154 4.84958 67.1443 4.87406C67.1392 4.89637 67.1342 4.91228 67.1319 4.91933L67.1316 4.92023C67.124 4.94426 67.1141 4.97036 67.1015 4.99704C67.0998 5.00172 67.0974 5.0086 67.0945 5.01726C67.0911 5.02762 67.0878 5.03843 67.085 5.04828L67.3028 4.52983ZM67.3028 4.52983C67.4546 4.24387 67.7111 3.93741 67.9799 3.72527C67.9898 3.71744 68.0098 3.70242 68.0382 3.68181C68.0653 3.66213 68.0959 3.64034 68.1249 3.62009C68.1524 3.60083 68.1765 3.58436 68.1935 3.57304C68.2064 3.56653 68.2182 3.55999 68.2268 3.55519C68.2461 3.54435 68.2682 3.53132 68.2897 3.51818L67.3028 4.52983ZM67.2428 6.96517L67.2428 6.9652C67.2437 6.96713 67.2447 6.96916 67.2457 6.97127C67.2593 6.99932 67.2799 7.04193 67.2954 7.08154L67.2956 7.08195C67.309 7.11606 67.3527 7.22785 67.3366 7.36816C67.3162 7.5467 67.2167 7.66117 67.1496 7.71976C67.1069 7.75703 67.058 7.78751 67.0397 7.79871C67.0387 7.79942 67.0374 7.80029 67.036 7.80134C67.0278 7.80721 67.0163 7.81564 67.0019 7.82643C66.9731 7.84787 66.9373 7.87518 66.9015 7.90285C66.8656 7.93058 66.8316 7.95726 66.8064 7.97747C66.7972 7.98485 66.7902 7.9906 66.7851 7.99475C66.7692 8.01047 66.7548 8.02368 66.7494 8.02858C66.7487 8.02923 66.7482 8.02974 66.7478 8.03008C66.7286 8.0478 66.7048 8.06933 66.6806 8.09089L67.2428 6.96517ZM67.2428 6.96517C67.135 6.74229 67.0778 6.57538 67.0318 6.35669L67.2428 6.96517ZM68.0166 13.3709L68.0167 13.371L68.0197 13.372C68.0569 13.3842 68.0719 13.3892 68.3445 13.44C68.4279 13.4555 68.6196 13.4687 68.8413 13.4697L68.0166 13.3709ZM68.0166 13.3709C67.9758 13.3576 67.9126 13.3378 67.8701 13.327L68.0166 13.3709ZM71.3619 8.3134C71.3602 8.31548 71.359 8.31694 71.3585 8.31766C71.3583 8.31783 71.3582 8.31796 71.3582 8.31804L71.3609 8.32023L71.3619 8.3134ZM71.3619 8.3134C71.3606 8.31505 71.3593 8.31666 71.358 8.31821L71.3608 8.32043L71.3619 8.3134ZM71.5808 7.28169L71.5789 7.28457C71.5663 7.30409 71.5482 7.33136 71.5289 7.35991C71.5097 7.38841 71.4909 7.416 71.4768 7.43616L71.4683 7.44822C71.4658 7.45122 71.4636 7.45392 71.4618 7.45607C71.4552 7.46421 71.4477 7.47357 71.4404 7.48281C71.4254 7.5017 71.4067 7.52574 71.3875 7.55077C71.3877 7.55045 71.382 7.55763 71.3673 7.57453C71.3535 7.59024 71.336 7.60986 71.3154 7.63221L71.5808 7.28169ZM71.5808 7.28169C71.5884 7.26675 71.5959 7.2538 71.6008 7.24545C71.612 7.22631 71.6249 7.20591 71.6374 7.18696L71.5808 7.28169ZM74.4124 12.24L74.4124 12.24C74.3719 12.1455 74.3651 12.1303 74.3114 12.0654C74.2311 11.9685 74.0859 11.8177 73.759 11.4809C73.5995 11.3166 73.4542 11.166 73.3485 11.0557C73.2957 11.0007 73.2521 10.9548 73.2213 10.9221C73.2061 10.906 73.1926 10.8915 73.1821 10.88C73.1774 10.8748 73.1705 10.8672 73.1636 10.8592C73.1609 10.856 73.1533 10.8472 73.1446 10.8359C73.1411 10.8313 73.1306 10.8177 73.1188 10.7993C73.1134 10.7908 73.1012 10.7713 73.0886 10.745C73.0885 10.7448 73.0883 10.7444 73.0881 10.7439C73.0822 10.7321 73.0397 10.646 73.0397 10.5293C73.0397 10.4534 73.0573 10.396 73.0635 10.3768C73.0717 10.3509 73.0805 10.3309 73.0856 10.3198C73.0958 10.2974 73.1056 10.2805 73.1099 10.2732C73.1193 10.2571 73.1281 10.2442 73.132 10.2384C73.1412 10.2251 73.1507 10.2122 73.1577 10.2028C73.1727 10.1826 73.191 10.1591 73.2083 10.1373C73.2258 10.1153 73.2447 10.0919 73.2616 10.0718C73.2617 10.0717 73.2618 10.0715 73.262 10.0712C73.2653 10.0673 73.2839 10.0445 73.308 10.0194L73.3108 10.0162L73.344 9.97768C73.3726 9.94434 73.4115 9.89868 73.4538 9.84885C73.4538 9.84883 73.4538 9.84881 73.4538 9.84879L74.4124 12.24ZM74.4124 12.24C74.4856 12.4107 74.4859 12.6808 74.4104 12.8571C74.3149 13.0798 74.1653 13.2267 73.9116 13.3247C73.8798 13.337 73.8011 13.3531 73.6897 13.3503C73.5813 13.3476 73.4862 13.328 73.4281 13.305L74.4124 12.24ZM73.8021 9.44533C73.7972 9.45002 73.7922 9.4551 73.7872 9.46029M73.8021 9.44533L73.7872 9.46029M73.8021 9.44533C73.795 9.45209 73.7899 9.45741 73.7883 9.45916L73.7872 9.46029M73.8021 9.44533L73.7872 9.46029M73.6539 9.61919C73.6495 9.62333 73.6454 9.62731 73.6419 9.63082M73.6539 9.61919L73.654 9.61911L73.6419 9.63082M73.6539 9.61919C73.649 9.62376 73.6449 9.62781 73.6419 9.63082M73.6539 9.61919L73.6419 9.63082M73.3448 9.98399C73.3365 9.99126 73.3282 9.99902 73.3204 10.0068M73.3448 9.98399L73.3204 10.0068M73.3448 9.98399C73.3342 9.99325 73.3264 10.0008 73.3235 10.0037L73.3204 10.0068M73.3448 9.98399L73.3204 10.0068M71.95 5.17664L71.95 5.1765C71.9462 5.15817 71.9416 5.13785 71.9375 5.12079L71.9328 5.10151L71.95 5.17664ZM71.95 5.17664C72.0797 5.80316 71.9948 6.47413 71.7233 7.02085L71.95 5.17664ZM71.9009 4.98684L71.9008 4.98665C71.7284 4.30753 71.1455 3.649 70.4067 3.34817L70.4066 3.34816L70.335 3.31876L70.3298 3.31706C70.3209 3.31423 70.311 3.31134 70.3038 3.30939L71.9009 4.98684ZM71.9009 4.98684C71.9094 5.02028 71.9224 5.06802 71.9325 5.10064L71.9009 4.98684ZM69.015 8.95695L69.0151 8.95701C69.0409 8.97403 69.0603 8.99043 69.0644 8.99385L69.0648 8.99421C69.072 9.00034 69.0782 9.00583 69.0821 9.0094C69.0903 9.01676 69.0983 9.02439 69.1051 9.03086C69.1192 9.04424 69.1365 9.06117 69.1556 9.08002C69.1942 9.11814 69.2462 9.17014 69.3062 9.23058C69.4265 9.35179 69.5828 9.51065 69.7376 9.66876C69.8924 9.82686 70.0465 9.98505 70.1621 10.1049C70.2198 10.1647 70.269 10.216 70.3042 10.2533C70.3215 10.2716 70.3374 10.2887 70.3499 10.3024C70.3555 10.3087 70.3641 10.3182 70.3727 10.3284C70.3762 10.3326 70.3855 10.3438 70.396 10.3582C70.4006 10.3645 70.4125 10.3809 70.4254 10.4032C70.4316 10.4141 70.4437 10.4356 70.4554 10.4644L70.4556 10.4646C70.463 10.4829 70.4929 10.5557 70.4929 10.6544C70.4929 10.7572 70.4612 10.8344 70.452 10.8566C70.4381 10.8899 70.4232 10.9168 70.4133 10.9337C70.393 10.9682 70.3708 10.9994 70.3533 11.0227C70.3169 11.0713 70.2723 11.1242 70.2285 11.1733C70.1448 11.2672 70.0295 11.3857 69.9311 11.464C69.9311 11.464 69.9311 11.464 69.931 11.4641L69.6196 11.0729L69.015 8.95695ZM69.015 8.95695C68.9188 8.89345 68.8251 8.87743 68.7823 8.87201M69.015 8.95695L68.7823 8.87201M74.5611 8.50467C74.6143 8.40744 74.6348 8.33026 74.6419 8.1972C74.6738 7.59399 74.1399 7.20692 73.6303 7.37604L74.5611 8.50467ZM74.5611 8.50467C74.4954 8.62469 74.3745 8.78373 74.127 9.06163L74.5611 8.50467ZM71.6568 7.15503L71.6514 7.16436C71.646 7.17358 71.6406 7.18211 71.6374 7.18696L71.6568 7.15503ZM71.6568 7.15503L71.7233 7.02088L71.6568 7.15503ZM68.7823 8.87201C68.731 8.86553 68.6857 8.86662 68.6523 8.86905M68.7823 8.87201L68.6523 8.86905M68.6523 8.86905C68.5851 8.87395 68.5204 8.88788 68.4646 8.90412L68.6523 8.86905ZM67.0422 5.22093C67.0558 5.16703 67.0728 5.09822 67.0799 5.06708L67.0318 6.35668C66.9575 6.00333 66.965 5.52548 67.0422 5.22098L67.0422 5.22093ZM66.8169 7.96135C66.8099 7.96936 66.8036 7.97606 66.7987 7.98101C66.8051 7.97447 66.8113 7.96781 66.8169 7.96135ZM67.6122 13.2312C67.2924 13.0812 67.1066 12.9692 66.9089 12.8157L67.8693 13.3268C67.8635 13.325 67.8543 13.322 67.8418 13.3177C67.817 13.3092 67.7852 13.2979 67.7516 13.2855C67.7181 13.2732 67.6849 13.2606 67.6574 13.2497C67.6436 13.2443 67.6321 13.2396 67.6233 13.236C67.6153 13.2326 67.6118 13.2311 67.6118 13.2311L67.6122 13.2312ZM69.9153 13.2809C69.8984 13.2871 69.8772 13.2958 69.8536 13.308L72.8928 12.8647C72.8218 12.793 72.7568 12.7272 72.6973 12.667C72.4438 12.4103 72.2904 12.2549 72.1989 12.1806C72.169 12.1564 72.1071 12.1078 72.025 12.074C71.9238 12.0323 71.7525 11.9992 71.5745 12.0923C71.4477 12.1586 71.3801 12.2643 71.3771 12.2689L71.377 12.2691C71.3759 12.2707 71.3749 12.2721 71.374 12.2734C71.1661 12.5122 70.841 12.7982 70.67 12.905C70.6383 12.9247 70.5848 12.9584 70.5503 12.9803L70.55 12.9805C70.5313 12.9924 70.4632 13.0318 70.4023 13.0647L70.4021 13.0648C70.3399 13.0984 70.2757 13.1332 70.2629 13.1403C70.2636 13.1399 70.264 13.1397 70.264 13.1397C70.264 13.1397 70.26 13.1418 70.2504 13.1464C70.2394 13.1517 70.225 13.1584 70.2076 13.1663C70.1729 13.182 70.1313 13.2001 70.0904 13.2174C70.0491 13.2347 70.0119 13.2497 69.9858 13.2597L69.9825 13.2609C69.9561 13.267 69.9335 13.2742 69.9153 13.2809ZM71.3838 12.262L71.3838 12.262L71.3838 12.262ZM71.1799 7.77469C71.1213 7.83404 71.069 7.88917 71.0296 7.93394C71.011 7.95496 70.9882 7.98169 70.9678 8.00928C70.959 8.02123 70.94 8.04737 70.9217 8.08115C70.9132 8.09687 70.8952 8.13156 70.881 8.17828L70.8808 8.17913C70.8723 8.20687 70.8312 8.3421 70.8912 8.50183L71.1799 7.77469ZM71.59 7.26732L71.5899 7.26738L71.59 7.26732ZM71.5266 7.38808C71.5209 7.39309 71.5156 7.39798 71.5108 7.40252C71.5155 7.39809 71.5207 7.39321 71.5266 7.38808ZM71.528 7.44503C71.5282 7.4438 71.5284 7.4426 71.5285 7.4414C71.5253 7.46293 71.5228 7.48849 71.5228 7.51668C71.5228 7.4871 71.5255 7.46249 71.528 7.44503ZM72.4795 8.54936L72.4857 8.54255L72.493 8.53434L72.5086 8.51653L72.5571 8.46045C72.5969 8.41437 72.6506 8.35185 72.7089 8.28394C72.8247 8.14897 72.9632 7.98931 73.0161 7.9295C73.0743 7.86387 73.1596 7.76524 73.2079 7.70768L72.4795 8.54936ZM72.1361 8.94642C72.1435 8.93719 72.169 8.90742 72.1895 8.88467L70.8913 8.50222C70.913 8.55994 70.9412 8.60108 70.9473 8.60997L70.9479 8.61078C70.9584 8.62617 70.9679 8.63831 70.9734 8.64523C70.9848 8.6595 70.9958 8.67197 71.0031 8.68015C71.0187 8.69752 71.0366 8.71641 71.0536 8.73387C71.0884 8.76979 71.132 8.81326 71.1747 8.85482C71.2173 8.8964 71.2619 8.93904 71.2989 8.97312C71.3169 8.98973 71.3363 9.00721 71.354 9.02235C71.3624 9.02955 71.3748 9.03992 71.3888 9.05062C71.3956 9.05585 71.4071 9.06439 71.4214 9.07383L71.4219 9.07418C71.4307 9.08005 71.4661 9.1034 71.5151 9.12291L71.5153 9.123C71.6781 9.18774 71.8417 9.16141 71.9638 9.09374C72.0571 9.04203 72.1143 8.97331 72.1359 8.94658L72.1361 8.94642ZM73.6395 9.6319L73.6274 9.64606L74.127 9.06168C74.0991 9.09297 74.0087 9.19905 73.9279 9.29481C73.8873 9.34289 73.8493 9.38756 73.821 9.42066L73.7878 9.45921L73.7825 9.46525C73.765 9.48379 73.7488 9.50262 73.743 9.50944C73.7423 9.5102 73.7418 9.51081 73.7414 9.51125C73.7252 9.53011 73.7054 9.55343 73.6856 9.57713L74.0694 9.89759L73.6856 9.57713C73.668 9.59826 73.6516 9.61774 73.6395 9.6319ZM69.7138 6.87265L69.7139 6.8726C70.1493 6.70295 70.3919 6.30636 70.4418 5.93179C70.4915 5.55897 70.3538 5.06816 69.8601 4.87148C69.421 4.69659 69.0073 4.88752 68.7785 5.16212C68.5505 5.43569 68.443 5.85887 68.6365 6.2595L68.6365 6.25958C68.6645 6.31743 68.7003 6.36407 68.7129 6.38045L68.713 6.38068C68.7323 6.4058 68.7535 6.43108 68.7734 6.45408C68.8137 6.50058 68.8614 6.55191 68.9074 6.59935C68.9532 6.64653 69.0025 6.69514 69.0464 6.73518C69.0677 6.7546 69.0932 6.77708 69.1195 6.79767C69.1324 6.80772 69.1515 6.82212 69.1744 6.83676L69.1753 6.83734C69.1893 6.84631 69.2451 6.88201 69.3227 6.90317L69.323 6.90325C69.4004 6.92434 69.4657 6.92239 69.4906 6.92127C69.5241 6.91976 69.5536 6.91558 69.5763 6.91147C69.6214 6.90333 69.6685 6.89027 69.7138 6.87265ZM67.9292 11.5704L68.2195 11.1634L68.3473 8.9375C67.9758 9.0411 67.6219 9.32868 67.4501 9.67587C67.3321 9.91436 67.2861 10.106 67.2857 10.3716V10.3716C67.2849 10.8651 67.5322 11.2872 67.9292 11.5704ZM66.1107 8.82606C66.1239 8.80472 66.1586 8.74707 66.1874 8.69863L65.762 9.8294C65.836 9.43411 65.9849 9.02923 66.1107 8.82606ZM66.1874 8.69861C66.3076 8.49693 66.5306 8.22457 66.6805 8.091L66.1874 8.69861ZM73.2593 13.212C73.1875 13.1558 73.0885 13.0622 72.8928 12.8647L73.2593 13.212ZM73.2079 7.70764C73.3895 7.49115 73.5122 7.41523 73.6303 7.37605L73.2079 7.70764ZM68.4645 8.90417C68.4359 8.91249 68.3826 8.92763 68.3473 8.93748L68.4645 8.90417Z" stroke="#175EA8"/>
</svg>
