<svg width="64" height="26" viewBox="0 0 64 26" fill="none" xmlns="http://www.w3.org/2000/svg">
<g clip-path="url(#clip0_16613_191899)">
<path d="M13.604 12.3229C9.93536 12.1768 5.16325 12.2619 1.96365 12.2507C1.89458 12.2507 1.82551 12.2619 1.76126 12.2876C1.69701 12.3133 1.63919 12.3518 1.5894 12.4C1.5396 12.4482 1.50106 12.506 1.47375 12.5703C1.44644 12.6345 1.43359 12.702 1.43359 12.7711V15.7795C1.43359 16.4991 2.60293 16.1602 2.82298 18.2917C2.87599 18.833 2.87599 19.3775 2.82298 19.9172C2.61256 22.0599 1.43359 21.7772 1.43359 22.4679V25.4731C1.43681 25.6112 1.49302 25.7446 1.59261 25.8425C1.6922 25.9405 1.82551 25.9951 1.96365 25.9951H11.6797C12.2001 25.9951 12.274 25.3655 12.274 24.6395C12.274 24.0837 12.4282 23.1891 11.7424 23.1039C10.8734 22.9963 10.2421 22.614 9.49686 21.9362C9.2768 21.7354 9.13385 21.6792 9.53862 21.1877C9.94339 20.6962 9.93696 20.9227 10.1988 21.0897C10.9778 21.7049 11.9271 21.8013 12.6306 21.8286C15.9603 21.8703 18.6186 20.55 18.6684 17.3119C18.7021 15.2447 17.2967 12.3486 13.604 12.3229ZM10.973 17.8002C10.9617 17.903 10.9103 17.9961 10.8316 18.0604C10.7513 18.1246 10.6501 18.1567 10.5473 18.1471H10.0542C9.95142 18.1567 9.85023 18.1246 9.76991 18.0604C9.6896 17.9961 9.6382 17.9014 9.62696 17.8002V15.3105C9.6382 15.2077 9.6896 15.1146 9.76991 15.0503C9.85023 14.9861 9.95142 14.9539 10.0542 14.9636H10.5473C10.6501 14.9539 10.7513 14.9861 10.8316 15.0503C10.9119 15.1146 10.9617 15.2093 10.973 15.3105V17.8002Z" fill="#1A1A1A"/>
<path d="M34.4096 20.9114H28.0827C26.9278 20.8921 28.1245 22.0888 26.8989 22.0807C26.4781 22.0807 26.2982 22.0936 26.2982 21.48V19.9766C26.2982 19.7613 26.2484 19.4385 26.8346 19.4899C33.4362 20.0842 34.8128 19.1108 34.8112 17.0018C34.8112 14.6005 31.5602 13.2963 26.9455 13.2963C21.4859 13.2963 19.0846 15.2783 19.1071 19.6617C19.1264 23.552 21.2514 25.9983 26.9455 25.9983C29.8222 25.9983 34.6987 25.0892 34.6987 21.2005C34.6987 21.1234 34.6682 21.0511 34.6136 20.9965C34.559 20.9419 34.4867 20.9114 34.4096 20.9114ZM26.2612 15.6671C26.2612 15.2655 26.8459 15.3314 27.1704 15.3314C27.2699 15.3217 27.3711 15.3506 27.4482 15.4133C27.5269 15.4759 27.5783 15.5675 27.5896 15.6671V17.1143C27.5896 17.5158 27.0049 17.45 26.6805 17.4484C26.5809 17.458 26.4813 17.4291 26.4026 17.3664C26.3239 17.3038 26.2725 17.2139 26.2596 17.1143V15.6671H26.2612Z" fill="#1A1A1A"/>
<path d="M45.385 13.8666C45.1488 13.8666 44.9192 13.7814 44.7393 13.6288C44.5594 13.4746 44.4405 13.2626 44.4036 13.0281C44.3393 12.5511 44.1401 12.5077 43.8478 12.5077H38.03C37.9144 12.5077 37.802 12.543 37.7088 12.6137C37.6172 12.6828 37.5498 12.7824 37.5209 12.8932C37.2494 13.8136 36.6455 14.599 35.8247 15.0985C35.7524 15.1467 35.693 15.211 35.6528 15.2881C35.6127 15.3652 35.5918 15.4503 35.5918 15.537V17.691C35.5918 18.6097 36.6872 17.8548 36.7178 18.7495C36.7033 19.0418 36.5443 21.5106 36.5234 21.9619C36.3499 25.5454 39.5174 26.0032 42.4921 26.0032C48.946 26.0032 48.9203 21.7531 48.5155 18.8796C48.5059 18.7447 48.448 18.6162 48.3533 18.5214C48.2585 18.4266 48.13 18.3672 47.9951 18.3592H45.3287C45.1906 18.3592 45.0573 18.4138 44.9609 18.5118C44.8629 18.6097 44.8083 18.7415 44.8083 18.8796V20.4537C44.8083 20.5886 44.7553 20.7171 44.6606 20.8135C44.5658 20.9083 44.4357 20.9629 44.3024 20.9629C43.8848 20.9629 43.5619 21.056 43.5523 20.4537V17.1963C43.5523 17.0613 43.6053 16.9312 43.7016 16.8365C43.7964 16.7417 43.9265 16.6871 44.0614 16.6871H47.9276C47.9967 16.6871 48.0658 16.6759 48.13 16.6502C48.1943 16.6245 48.2521 16.5859 48.3019 16.5377C48.3517 16.4895 48.3902 16.4317 48.4175 16.3675C48.4448 16.3032 48.4577 16.2357 48.4577 16.1667C48.4721 13.1277 48.6777 14.0063 45.3898 13.8698L45.385 13.8666Z" fill="#1A1A1A"/>
<path d="M63.0049 17.6267C63.1431 17.6219 63.2748 17.5641 63.3728 17.4661C63.4707 17.3681 63.5286 17.2364 63.5334 17.0983V14.3789C63.5334 14.3099 63.5189 14.2408 63.4932 14.1782C63.4659 14.1139 63.4274 14.0561 63.3776 14.0079C63.3278 13.9597 63.27 13.9212 63.2057 13.8955C63.1415 13.8698 63.0724 13.8569 63.0033 13.8585H50.0347C49.8965 13.8585 49.7632 13.9131 49.6668 14.0111C49.5689 14.1091 49.5142 14.2408 49.5142 14.3789V19.7807C49.5142 19.9188 49.5689 20.0521 49.6668 20.1485C49.7648 20.2465 49.8965 20.3011 50.0347 20.3011C50.0347 20.3011 51.5461 20.8697 52.5773 17.8693C52.7669 17.3167 53.1138 17.4147 53.48 17.5641C53.7418 17.6637 53.7579 17.9432 53.6776 18.2114C53.0367 20.4216 52.3219 21.9443 50.0298 22.1772C49.8933 22.1836 49.7648 22.2414 49.6684 22.3378C49.5721 22.4342 49.5142 22.5627 49.5078 22.6992V25.4121C49.5078 25.4812 49.5191 25.5503 49.5448 25.6145C49.5705 25.6788 49.609 25.7366 49.6572 25.7864C49.7054 25.8362 49.7632 25.8747 49.8275 25.902C49.8917 25.9293 49.9592 25.9422 50.0282 25.9422H62.9969C63.066 25.9422 63.135 25.9309 63.1993 25.9052C63.2635 25.8795 63.3214 25.841 63.3712 25.7928C63.421 25.7446 63.4595 25.6868 63.4868 25.6225C63.5141 25.5583 63.527 25.4908 63.527 25.4218V20.0184C63.5238 19.8803 63.4675 19.747 63.3679 19.649C63.2684 19.551 63.135 19.4964 62.9969 19.4964C62.9969 19.4964 61.4855 18.9294 60.451 21.9395C60.2631 22.492 59.9162 22.3924 59.5499 22.2446C59.2881 22.1451 59.2721 21.8656 59.3508 21.5941C59.9965 19.3759 60.7129 17.8516 63.0001 17.6267H63.0049Z" fill="#1A1A1A"/>
<path d="M7.5981 6.20646C7.5981 8.22228 6.17659 9.50726 4.48202 9.50726C3.48134 9.50726 2.97377 9.11213 2.60273 9.11213C2.23169 9.11213 1.9233 9.47031 1.68718 9.47031C1.51371 9.47031 1.41573 9.33379 1.41573 9.14907V1.81664C1.41734 1.05047 0.464844 1.4713 0.464844 0.989436C0.464844 0.79187 0.67526 0.644097 1.35469 0.334095C1.97309 0.0369432 2.13371 0 2.28149 0C2.45496 0 2.52885 0.160623 2.52885 0.321245V4.10712C2.52885 4.16495 2.60113 4.18904 2.63646 4.14407C3.11191 3.53852 3.84113 3.10323 4.80326 3.10323C6.44804 3.10323 7.5981 4.34003 7.5981 6.20646ZM6.42395 6.60159C6.42395 5.1062 5.59513 3.95614 4.38404 3.95614C3.43155 3.95614 2.52885 4.66127 2.52885 5.94625V6.84895C2.52885 8.08575 3.35766 8.85192 4.48202 8.85192C5.60638 8.85192 6.42234 8.12269 6.42234 6.60159H6.42395Z" fill="#1A1A1A"/>
<path d="M8.2534 9.13624C8.2534 8.66562 9.03242 9.02541 9.03242 8.02312V1.81666C9.03242 1.05049 8.15381 1.46972 8.15381 0.987849C8.15381 0.790283 8.36422 0.64251 9.01957 0.332508C9.65081 0.0353563 9.77289 -0.00158691 9.88532 -0.00158691C10.0829 -0.00158691 10.1455 0.159036 10.1455 0.430488V8.02152C10.1455 9.0222 10.9374 8.66401 10.9374 9.13463C10.9374 9.24546 10.8635 9.38199 10.6772 9.38199C10.4057 9.38199 10.0347 9.34505 9.58978 9.34505C9.14485 9.34505 8.81076 9.38199 8.5393 9.38199C8.34174 9.38199 8.255 9.24546 8.255 9.13463L8.2534 9.13624Z" fill="#1A1A1A"/>
<path d="M11.5654 6.3543C11.5654 4.45092 12.9869 3.04065 14.9289 3.04065C16.8708 3.04065 18.1429 4.37542 18.1429 6.28041C18.1429 8.1854 16.7086 9.56836 14.7795 9.56836C12.8504 9.56836 11.5654 8.23358 11.5654 6.3543ZM16.9431 6.71249C16.9431 5.15444 16.0163 3.72008 14.6687 3.72008C13.4945 3.72008 12.7653 4.65973 12.7653 5.90776C12.7653 7.45296 13.6921 8.90017 15.0397 8.90017C16.2139 8.90017 16.9431 7.94767 16.9431 6.71249Z" fill="#1A1A1A"/>
<path d="M25.4527 9.71767C25.4527 10.8677 24.1179 11.6837 22.1278 11.6837C20.1377 11.6837 18.8398 11.0524 18.8398 10.1128C18.8398 9.62612 19.1643 9.1844 19.7329 8.88565C19.7779 8.86155 19.7747 8.79891 19.7281 8.77803C19.3281 8.60456 19.1241 8.29616 19.1241 7.93637C19.1241 7.50429 19.5193 7.11719 19.9385 6.8361C19.9738 6.81201 19.9722 6.76061 19.9385 6.73812C19.4036 6.39117 19.0888 5.87718 19.0888 5.22827C19.0888 4.05411 20.128 3.06468 21.9945 3.06468C22.1728 3.06468 22.3511 3.07432 22.5197 3.0952C22.5518 3.09841 22.5791 3.07753 22.584 3.0454C22.759 1.99493 23.4353 1.48254 23.8111 1.48254C24.1452 1.48254 24.4295 1.59337 24.7749 1.80379C24.9226 1.90338 25.0463 2.01421 25.0463 2.16198C25.0463 2.30975 24.9467 2.43343 24.6994 2.43343C24.0135 2.43343 23.3517 2.5041 23.1574 3.15623C23.1477 3.18675 23.167 3.21888 23.1975 3.22851C24.1532 3.52085 24.7363 4.16816 24.7363 5.05479C24.7363 6.20485 23.7228 7.20553 21.8435 7.20553C21.3841 7.20553 20.9729 7.1461 20.6083 7.04009C20.5922 7.03527 20.5746 7.03848 20.5601 7.04652C20.3336 7.18947 20.1248 7.33564 20.1248 7.55087C20.1248 7.76611 20.3224 7.84802 20.793 7.89621C21.9061 8.03274 23.1172 8.14357 23.5381 8.19336C24.7379 8.30419 25.4543 8.83585 25.4543 9.71446L25.4527 9.71767ZM24.3524 10.0518C24.3524 9.60684 23.9444 9.34663 23.1044 9.24865C22.2579 9.16352 21.4596 9.07679 20.6501 8.97881C20.6372 8.97881 20.626 8.97881 20.6147 8.98523C20.2389 9.1844 19.9273 9.53938 19.9273 9.99073C19.9273 10.72 20.7432 11.0781 22.1776 11.0781C23.5252 11.0781 24.354 10.5593 24.354 10.0518H24.3524ZM20.2597 5.0821C20.2597 6.00889 20.989 6.59035 21.9656 6.59035C22.9421 6.59035 23.5605 6.05869 23.5605 5.19293C23.5605 4.27738 22.8185 3.68468 21.8547 3.68468C20.891 3.68468 20.2597 4.22919 20.2597 5.0821Z" fill="#1A1A1A"/>
</g>
<defs>
<clipPath id="clip0_16613_191899">
<rect width="63.0701" height="26" fill="white" transform="translate(0.464844)"/>
</clipPath>
</defs>
</svg>
