<svg width="118" height="26" fill="none" xmlns="http://www.w3.org/2000/svg"><path d="M23.124.062C16.152-.21 7.084.504 1.007.481A.992.992 0 0 0 0 1.469v5.149c0 1.363 2.222.721 2.64 4.763.102 1.025.102 2.058 0 3.083C2.242 18.526 0 17.992 0 19.3v5.702a.986.986 0 0 0 1.007.988H19.47c.99 0 1.129-1.192 1.129-2.566 0-1.057.293-2.754-1.01-2.912-1.651-.204-2.853-.929-4.269-2.217-.419-.379-.69-.487.08-1.42.769-.932.755-.504 1.254-.18 1.479 1.162 3.285 1.35 4.621 1.4 6.329.075 11.38-2.428 11.472-8.565.062-3.927-2.608-9.418-9.623-9.468zm-4.998 10.383a.744.744 0 0 1-.809.66h-.937a.75.75 0 0 1-.812-.66V5.732a.748.748 0 0 1 .812-.66h.937a.747.747 0 0 1 .81.66v4.713zM62.658 16.348H50.635c-2.195-.033.08 2.237-2.248 2.22-.799 0-1.142.02-1.142-1.14V14.58c0-.408-.096-1.024 1.02-.922 12.544 1.123 15.158-.718 15.155-4.72 0-4.55-6.176-7.027-14.947-7.027-10.375 0-14.938 3.762-14.895 12.073.037 7.375 4.074 12.01 14.895 12.01 5.466 0 14.733-1.723 14.733-9.098a.544.544 0 0 0-.548-.547zM47.175 6.403c0-.76 1.113-.635 1.727-.632a.73.73 0 0 1 .799.632v2.744c0 .761-1.113.636-1.727.636a.734.734 0 0 1-.798-.636V6.403zM83.514 2.991A1.89 1.89 0 0 1 81.649 1.4c-.122-.906-.502-.988-1.057-.988H69.537a.992.992 0 0 0-.967.731 7.305 7.305 0 0 1-3.222 4.18 1.007 1.007 0 0 0-.442.834v4.08c0 1.743 2.083.31 2.139 2.007-.027.553-.33 5.238-.37 6.09-.33 6.797 5.688 7.663 11.343 7.666 12.263 0 12.214-8.057 11.444-13.506a1.06 1.06 0 0 0-.99-1.004h-5.067a.994.994 0 0 0-.92.621.986.986 0 0 0-.07.383v2.985a.96.96 0 0 1-.964.962c-.792 0-1.406.18-1.426-.962v-6.18a.964.964 0 0 1 .967-.962h7.345a1.011 1.011 0 0 0 1.007-1.004c.026-5.745.419-4.085-5.83-4.342zM116.993 10.11A1.046 1.046 0 0 0 118 9.12V3.963a.983.983 0 0 0-.623-.918.99.99 0 0 0-.384-.07l-24.642-.017a.992.992 0 0 0-.99 1.005V14.2a.987.987 0 0 0 .99.988s2.872 1.077 4.833-4.628c.36-1.048 1.02-.863 1.716-.58.499.188.528.718.377 1.229-1.219 4.193-2.575 7.082-6.933 7.52a1.047 1.047 0 0 0-.99 1.005v5.145a.987.987 0 0 0 .99.988h24.643a.993.993 0 0 0 1.007-.988V14.652a.983.983 0 0 0-.623-.918.993.993 0 0 0-.384-.07s-2.872-1.077-4.836 4.628c-.357 1.047-1.017.863-1.714.58-.498-.188-.528-.718-.379-1.229 1.228-4.213 2.588-7.092 6.935-7.534z" fill="#175EA8"/></svg>