<svg width="88" height="40" viewBox="0 0 88 40" fill="none" xmlns="http://www.w3.org/2000/svg">
<path d="M54.9158 2.33527C54.9158 0.987454 53.5817 0.0722176 51.6875 0.0836011C49.9549 0.0836011 47.5325 1.20602 47.5598 4.20444C47.5848 6.80672 49.8889 7.99972 51.4803 7.99972C53.5749 7.99972 54.6791 6.55628 54.777 5.65698C54.7929 5.32914 54.4195 5.25173 54.226 5.48623C54.0155 5.77779 53.7366 6.01328 53.4139 6.17205C53.0912 6.33082 52.7345 6.40803 52.375 6.39691C51.1752 6.39691 50.3897 5.81863 50.2577 5.03089C52.3045 5.12879 54.9158 4.316 54.9158 2.33527ZM49.6566 4.1202C49.6566 4.1202 49.495 4.13842 49.4768 4.1202C49.4199 4.04507 49.5565 3.79919 49.898 3.485C49.9599 3.05066 50.1337 2.63989 50.4023 2.29302C50.6709 1.94615 51.0252 1.67512 51.4302 1.50654C51.5531 1.46101 51.5645 1.27887 51.6146 1.16504C51.6551 1.05622 51.7191 0.957722 51.8022 0.876626C51.8852 0.79553 51.9852 0.733853 52.095 0.696035C52.6209 0.543496 52.8736 0.923706 52.8418 1.09674C53.181 1.32441 53.1013 1.65225 52.7507 1.8139C52.7736 1.78511 52.7896 1.75149 52.7974 1.71558C52.8053 1.67967 52.8049 1.64244 52.7962 1.60672C52.7804 1.62469 52.7599 1.63799 52.737 1.64521C52.7142 1.65243 52.6898 1.65329 52.6665 1.6477L52.605 1.82528C52.9146 2.82248 52.6482 3.76276 50.7062 4.00865C49.9503 4.25453 49.6612 4.13386 49.6566 4.1202Z" fill="#893652"/>
<path d="M45.9653 0C45.2686 0 44.7199 0.248161 44.0961 0.910683C44.0812 0.928167 44.0613 0.940719 44.0391 0.946688C44.0169 0.952658 43.9934 0.951764 43.9717 0.944125C43.9501 0.936486 43.9312 0.922459 43.9176 0.903892C43.9041 0.885325 43.8965 0.863087 43.8958 0.840105V0.466725C43.8958 0.1662 43.7546 -0.0227671 43.3904 0.150263L41.4916 1.03818C41.2844 1.13152 41.1592 1.26585 41.1592 1.41839V1.47986C41.1592 1.87601 41.8877 1.9352 41.8877 2.61821V6.3247C41.8877 6.98949 41.2685 7.11699 41.2685 7.51314V7.57688C41.2685 7.74991 41.4119 7.84554 41.6327 7.84554H44.3967C44.6016 7.84554 44.7427 7.74991 44.7427 7.57688V7.51314C44.7427 7.11699 43.8981 6.98949 43.8981 6.3247V3.18967C43.8844 2.79807 43.8207 2.52487 43.577 2.36778C43.3339 2.33364 43.0871 2.33364 42.8439 2.36778C42.7666 2.37217 42.6896 2.35515 42.6213 2.3186C42.553 2.28205 42.4961 2.22738 42.4569 2.1606C42.4136 2.1606 42.3567 2.12189 42.3567 2.08319C42.3567 2.04448 42.4068 2.00806 42.4501 1.99667C42.4819 1.88967 42.5912 1.7303 42.9054 1.52312C43.0147 1.45312 43.1335 1.39943 43.2583 1.36375C43.2788 1.36375 43.3471 1.07688 43.486 1.01541C43.5383 0.992645 43.6681 1.11103 43.6795 1.31366C43.684 1.33248 43.6934 1.34977 43.7068 1.36375C43.8798 1.51173 44.0961 1.59142 44.6699 1.43888C44.8145 1.40014 44.9669 1.40014 45.1115 1.43888C45.7331 1.60736 45.6671 2.76848 46.5504 2.76848C47.131 2.76848 47.4611 2.24028 47.4611 1.57548C47.4709 1.3784 47.4417 1.18132 47.3753 0.995525C47.3088 0.809732 47.2063 0.638876 47.0737 0.492742C46.9411 0.346608 46.781 0.228066 46.6025 0.143904C46.424 0.0597428 46.2307 0.011615 46.0336 0.00227676L45.9653 0Z" fill="#893652"/>
<path d="M30.2318 3.37632C29.7059 3.20329 29.1891 3.10084 28.7201 2.79803C28.6278 2.75155 28.5465 2.68585 28.4817 2.60535C28.4169 2.52485 28.3701 2.43141 28.3444 2.33131C28.3125 2.24479 28.2419 2.2243 28.1281 2.26073L28.0348 2.29716C27.9895 2.31849 27.939 2.32639 27.8894 2.31993C27.8398 2.31348 27.793 2.29293 27.7547 2.26073C27.6938 2.21699 27.6271 2.18176 27.5567 2.156C27.5118 2.15039 27.4685 2.13581 27.4294 2.11313C27.3903 2.09044 27.3561 2.06011 27.329 2.02395C27.3008 1.9786 27.2895 1.9248 27.297 1.87194C27.3045 1.81909 27.3303 1.77056 27.37 1.73481C27.4222 1.69002 27.4786 1.65038 27.5384 1.61642C27.5776 1.5959 27.6179 1.57766 27.6591 1.56178C27.7407 1.53444 27.8152 1.48945 27.8773 1.43003C27.9395 1.37061 27.9878 1.29822 28.0188 1.218C28.0524 1.14146 28.1145 1.08102 28.1919 1.04952C28.2406 1.02663 28.2871 0.999189 28.3307 0.96756C28.4031 0.915387 28.4879 0.883192 28.5766 0.874215L28.6836 0.858278C28.695 0.719399 28.7451 0.4553 28.7451 0.450747C28.8649 0.57428 28.9703 0.710997 29.0593 0.858278C29.0911 0.921789 29.1343 0.978901 29.1868 1.02675C29.2164 1.04724 29.2437 1.07001 29.271 1.09278C29.4987 1.30451 30.2022 2.09908 30.3274 2.26301C31.1994 3.40136 33.0276 2.47702 31.9644 1.10644C31.5978 0.632884 30.6757 0.0158956 28.8362 0.0363859C27.757 0.0363859 25.4666 0.689801 25.8537 2.84812C25.8959 3.12101 25.9978 3.38123 26.152 3.61026C26.3063 3.83928 26.5091 4.03148 26.7462 4.17316C27.5111 4.66038 29.1504 4.94269 29.5374 5.14987C29.7419 5.26205 29.913 5.42658 30.033 5.62661C30.153 5.82664 30.2177 6.05497 30.2204 6.28823C30.2204 6.99856 29.715 7.33096 29.0661 7.33096C27.4724 7.33096 28.0211 5.24322 26.6278 5.24322C26.0791 5.23183 25.667 5.50049 25.667 6.10154C25.667 7.0828 27.0125 7.93884 29.0547 7.93884C31.1743 7.93884 32.4402 6.95758 32.4402 5.66213C32.4402 4.13901 31.3269 3.71099 30.2318 3.37632Z" fill="#893652"/>
<path d="M58.007 1.79428C58.0009 1.6609 58.0212 1.52763 58.0666 1.40209C58.1121 1.27654 58.1818 1.1612 58.2719 1.06265C58.362 0.964107 58.4707 0.884296 58.5916 0.827787C58.7126 0.771278 58.8435 0.739181 58.9769 0.733334H59.0361C60.4135 0.733334 59.9468 2.80742 61.2673 2.80742C61.3799 2.81451 61.4927 2.79935 61.5995 2.76279C61.7062 2.72623 61.8046 2.66899 61.8892 2.59435C61.9738 2.51971 62.0428 2.42913 62.0924 2.32778C62.1419 2.22644 62.171 2.11633 62.178 2.00374V1.98552C62.178 1.00199 60.9098 0.0844727 58.9177 0.0844727C57.0167 0.0844727 55.703 1.06573 55.703 2.41127C55.6774 2.80407 55.7688 3.19566 55.9658 3.53649C56.1627 3.87731 56.4563 4.15206 56.8095 4.32598C56.9918 4.41219 57.1788 4.4882 57.3696 4.55365C57.8568 4.71074 58.8654 5.00899 58.8858 5.00899V4.75628C58.8769 4.60038 58.9041 4.44452 58.9655 4.30094C59.0068 4.1981 59.0403 4.09231 59.0657 3.98447C59.1091 3.83133 59.2029 3.69734 59.3321 3.60426C59.3548 3.67029 59.3753 3.66801 59.3913 3.72038C59.4209 3.80917 59.4436 3.90023 59.4732 3.98903C59.4839 4.02073 59.504 4.04842 59.5309 4.06836C59.5577 4.0883 59.5901 4.09954 59.6235 4.10058C59.7013 4.10696 59.7779 4.12381 59.8512 4.15067C59.9231 4.16875 59.9895 4.20412 60.0447 4.25372C60.0998 4.30332 60.142 4.36564 60.1676 4.43526C60.1908 4.48271 60.2282 4.52172 60.2746 4.54682C60.4021 4.62878 60.4294 4.69708 60.368 4.83596C60.3447 4.91096 60.3 4.97749 60.2393 5.02727C60.1786 5.07706 60.1046 5.10791 60.0265 5.116C59.9951 5.1182 59.9653 5.13047 59.9415 5.15099C59.9177 5.1715 59.9012 5.19916 59.8944 5.22983C59.8656 5.29069 59.8507 5.35717 59.8507 5.42449C59.8507 5.49181 59.8656 5.55829 59.8944 5.61915C59.9104 5.65102 59.9263 5.6829 59.94 5.71705C60.0498 5.89801 60.1058 6.10647 60.1016 6.3181C60.1016 7.03071 59.5962 7.36311 58.9473 7.36311C57.3536 7.36311 57.9023 5.27309 56.509 5.27309C55.9717 5.27309 55.5596 5.54174 55.5596 6.14279C55.5596 7.12405 56.9051 7.9801 58.9473 7.9801C61.0669 7.9801 62.3328 6.99883 62.3328 5.71705C62.3214 2.69586 58.007 3.96626 58.007 1.79428Z" fill="#893652"/>
<path d="M39.8585 5.45759C39.5557 5.94708 38.7338 6.36827 37.896 6.36827C37.4592 6.35281 37.0327 6.23172 36.6529 6.01538C36.4412 5.90838 36.3 6.05636 35.9357 6.22256C35.6936 6.32311 35.4383 6.38829 35.1776 6.41608C35.0751 6.43657 34.7814 6.5322 34.7222 6.41608C34.6631 6.29997 34.9795 6.29542 35.0979 6.25671C35.403 6.15199 35.6398 6.02904 35.6557 5.8674C35.6853 5.51678 35.0023 5.76267 34.959 5.59875C34.9476 5.5441 34.8816 5.53272 34.8816 5.45304C34.9007 5.30182 34.9735 5.16251 35.0868 5.06053C35.2001 4.95855 35.3462 4.90069 35.4986 4.89752C35.576 4.89752 35.6762 4.72677 35.7991 4.61521C35.9221 4.50365 36.2841 4.36022 36.3319 4.52869C36.3797 4.69717 35.9995 4.84516 35.8128 4.92712C35.8095 4.92859 35.8065 4.93071 35.804 4.93335C35.8015 4.93598 35.7996 4.93909 35.7983 4.94247C35.7971 4.94586 35.7965 4.94947 35.7966 4.95309C35.7968 4.95671 35.7976 4.96026 35.7991 4.96354C35.8001 4.96677 35.8019 4.9697 35.8043 4.97209C35.8066 4.97447 35.8096 4.97623 35.8128 4.9772C38.3991 5.0751 40.5392 4.12572 40.5392 2.24516C40.5392 1.27755 39.731 0.0708989 37.2016 0.0754523C35.1753 0.0754523 33.2196 1.5758 33.1832 3.94586C33.1445 6.4434 35.0638 7.97335 37.1925 7.97335C39.2415 7.97335 40.2911 6.5413 40.3799 5.62379C40.4117 5.29822 40.0475 5.21854 39.8585 5.45759ZM35.8925 1.75794C36.0698 1.50615 36.3178 1.31267 36.6052 1.20202C36.8925 1.09136 37.2063 1.06853 37.5067 1.1364C37.6956 1.17604 37.8648 1.2802 37.9853 1.431C38.1057 1.58181 38.17 1.76985 38.1669 1.96284C38.1758 2.20349 38.1349 2.44337 38.0467 2.66746C37.9586 2.89156 37.8251 3.09503 37.6546 3.26512C37.238 3.65671 36.8464 3.8047 35.9562 3.83885C35.6238 3.85251 35.5532 3.72502 35.551 3.55199C35.5396 2.74603 35.6398 2.13132 35.8925 1.75794Z" fill="#893652"/>
<path d="M6.65656 21.1118L4.40056 13.6558H1.12056L4.99256 24.9998H8.22456L12.0486 13.6558H8.86456L6.65656 21.1118ZM14.4448 20.0718C14.4928 19.4478 14.9888 18.8878 15.7408 18.8878C16.6688 18.8878 17.0368 19.4638 17.0528 20.0718H14.4448ZM17.2928 22.1358C17.1008 22.6158 16.6848 22.9838 15.9008 22.9838C15.1008 22.9838 14.4448 22.4398 14.4128 21.6398H19.6608C19.6608 21.6078 19.7088 21.3038 19.7088 20.8718C19.7088 18.2958 18.1728 16.7598 15.7568 16.7598C13.6128 16.7598 11.7088 18.3438 11.7088 20.9998C11.7088 23.6718 13.6768 25.2398 15.9008 25.2398C17.7728 25.2398 19.0528 24.1998 19.4848 22.8878C19.1648 22.7278 17.6288 22.2798 17.2928 22.1358ZM24.7226 14.7278H22.2106V15.7838C22.2106 16.5198 21.8106 17.0158 20.9946 17.0158H20.5786V19.3518H21.9386V22.2318C21.9386 24.1358 22.9626 25.1438 24.7546 25.1438C25.6506 25.1438 26.1146 24.9358 26.1786 24.9038V22.6638C26.0346 22.7118 25.7946 22.7438 25.5866 22.7438C25.0906 22.7438 24.7226 22.5678 24.7226 21.9278V19.3518H26.2106V17.0158H24.7226V14.7278ZM30.1323 20.0718C30.1803 19.4478 30.6763 18.8878 31.4283 18.8878C32.3563 18.8878 32.7243 19.4638 32.7403 20.0718H30.1323ZM32.9803 22.1358C32.7883 22.6158 32.3723 22.9838 31.5883 22.9838C30.7883 22.9838 30.1323 22.4398 30.1003 21.6398H35.3483C35.3483 21.6078 35.3963 21.3038 35.3963 20.8718C35.3963 18.2958 33.8603 16.7598 31.4443 16.7598C29.3003 16.7598 27.3963 18.3438 27.3963 20.9998C27.3963 23.6718 29.3643 25.2398 31.5883 25.2398C33.4603 25.2398 34.7403 24.1998 35.1723 22.8878C34.8523 22.7278 33.3163 22.2798 32.9803 22.1358ZM42.2326 17.0158C42.0726 16.9678 41.8806 16.9358 41.6086 16.9358C40.8726 16.9358 40.0406 17.3198 39.7206 18.1838V17.0158H36.9846V24.9998H39.8006V21.6398C39.8006 20.0558 40.6966 19.6078 41.5126 19.6078C41.7366 19.6078 41.9926 19.6238 42.2326 19.6878V17.0158ZM46.4732 24.9998V17.0158H43.6252V24.9998H46.4732ZM43.4332 14.5518C43.4332 15.4478 44.1532 16.1518 45.0332 16.1518C45.9132 16.1518 46.6492 15.4478 46.6492 14.5518C46.6492 13.6718 45.9132 12.9678 45.0332 12.9678C44.1532 12.9678 43.4332 13.6718 43.4332 14.5518ZM51.3006 20.4878C51.3006 19.8318 51.7006 19.3358 52.3406 19.3358C53.0286 19.3358 53.3646 19.8318 53.3646 20.4718V24.9998H56.1806V19.9598C56.1806 17.9918 55.1566 16.8238 53.3326 16.8238C52.4206 16.8238 51.5086 17.2558 51.1406 17.9598V17.0158H48.4846V24.9998H51.3006V20.4878ZM64.6056 13.6558H61.4856L60.1896 16.1518H62.4136L64.6056 13.6558ZM62.5256 24.9998H65.0696C65.0376 24.8558 64.9736 24.2638 64.9736 23.6398V19.8798C64.9736 18.1678 63.9496 16.7598 61.3736 16.7598C59.0376 16.7598 57.9656 18.2318 57.8696 19.4958L60.3176 19.8478C60.3496 19.2878 60.7176 18.8558 61.3736 18.8558C61.9336 18.8558 62.2536 19.1918 62.2536 19.6398C62.2536 19.9598 62.0616 20.1038 61.6296 20.1678L60.1576 20.3918C58.7496 20.5998 57.6776 21.2878 57.6776 22.8238C57.6776 24.1038 58.7016 25.1918 60.4136 25.1918C61.3256 25.1918 62.0776 24.8238 62.4616 24.1518C62.4616 24.4878 62.4776 24.8078 62.5256 24.9998ZM61.2136 23.2558C60.7176 23.2558 60.4616 22.9038 60.4616 22.5518C60.4616 22.1038 60.7656 21.8638 61.1976 21.7838L62.2536 21.6078V22.0398C62.2536 22.9358 61.8056 23.2558 61.2136 23.2558ZM72.1544 17.0158C71.9944 16.9678 71.8024 16.9358 71.5304 16.9358C70.7944 16.9358 69.9624 17.3198 69.6424 18.1838V17.0158H66.9064V24.9998H69.7224V21.6398C69.7224 20.0558 70.6184 19.6078 71.4344 19.6078C71.6584 19.6078 71.9144 19.6238 72.1544 19.6878V17.0158ZM76.3951 24.9998V17.0158H73.5471V24.9998H76.3951ZM73.3551 14.5518C73.3551 15.4478 74.0751 16.1518 74.9551 16.1518C75.8351 16.1518 76.5711 15.4478 76.5711 14.5518C76.5711 13.6718 75.8351 12.9678 74.9551 12.9678C74.0751 12.9678 73.3551 13.6718 73.3551 14.5518ZM80.7264 20.9838C80.7264 19.8318 81.4624 19.3038 82.1984 19.3038C82.9664 19.3038 83.7024 19.8318 83.7024 20.9838C83.7024 22.1358 82.9664 22.6638 82.1984 22.6638C81.4624 22.6638 80.7264 22.1358 80.7264 20.9838ZM77.9584 20.9998C77.9584 23.5118 79.8464 25.2398 82.2144 25.2398C84.5824 25.2398 86.4704 23.5118 86.4704 20.9998C86.4704 18.4878 84.5824 16.7598 82.2144 16.7598C79.8464 16.7598 77.9584 18.4878 77.9584 20.9998Z" fill="#893652"/>
</svg>
